<mxfile host="www.draw.io" modified="2020-02-24T03:40:56.234Z" agent="Mozilla/5.0 (Macintosh; Intel Mac OS X 10_14_0) AppleWebKit/537.36 (KHTML, like Gecko) Chrome/80.0.3987.87 Safari/537.36" etag="PlkjHy0J57HpIZZZVCdd" version="12.7.4" type="github">
  <diagram id="F4FjrUX0w_lbmP1baxvw" name="Page-1">
    <mxGraphModel dx="1642" dy="541" grid="1" gridSize="10" guides="1" tooltips="1" connect="1" arrows="1" fold="1" page="1" pageScale="1" pageWidth="827" pageHeight="1169" math="0" shadow="0">
      <root>
        <mxCell id="0" />
        <mxCell id="1" parent="0" />
        <mxCell id="JOXz93trbiHbaXkIUatv-177" value="" style="rounded=0;whiteSpace=wrap;html=1;" parent="1" vertex="1">
          <mxGeometry x="-15.5" y="1820" width="335.5" height="310" as="geometry" />
        </mxCell>
        <mxCell id="JOXz93trbiHbaXkIUatv-162" value="" style="rounded=0;whiteSpace=wrap;html=1;" parent="1" vertex="1">
          <mxGeometry x="445.81" y="1660" width="106.88" height="100" as="geometry" />
        </mxCell>
        <mxCell id="JOXz93trbiHbaXkIUatv-163" value="Node" style="text;html=1;strokeColor=none;fillColor=none;align=center;verticalAlign=middle;whiteSpace=wrap;rounded=0;" parent="1" vertex="1">
          <mxGeometry x="444" y="1660" width="40" height="20" as="geometry" />
        </mxCell>
        <mxCell id="JOXz93trbiHbaXkIUatv-160" value="" style="rounded=0;whiteSpace=wrap;html=1;" parent="1" vertex="1">
          <mxGeometry x="287.12" y="1660" width="106.88" height="100" as="geometry" />
        </mxCell>
        <mxCell id="JOXz93trbiHbaXkIUatv-161" value="Node" style="text;html=1;strokeColor=none;fillColor=none;align=center;verticalAlign=middle;whiteSpace=wrap;rounded=0;" parent="1" vertex="1">
          <mxGeometry x="287.12" y="1660" width="40" height="20" as="geometry" />
        </mxCell>
        <mxCell id="JOXz93trbiHbaXkIUatv-158" value="" style="rounded=0;whiteSpace=wrap;html=1;" parent="1" vertex="1">
          <mxGeometry x="117.81" y="1660" width="106.88" height="100" as="geometry" />
        </mxCell>
        <mxCell id="JOXz93trbiHbaXkIUatv-6" value="" style="rounded=0;whiteSpace=wrap;html=1;" parent="1" vertex="1">
          <mxGeometry x="170" y="230" width="180" height="200" as="geometry" />
        </mxCell>
        <mxCell id="JOXz93trbiHbaXkIUatv-9" style="edgeStyle=orthogonalEdgeStyle;rounded=0;orthogonalLoop=1;jettySize=auto;html=1;exitX=0.5;exitY=1;exitDx=0;exitDy=0;entryX=1;entryY=0.5;entryDx=0;entryDy=0;curved=1;" parent="1" source="JOXz93trbiHbaXkIUatv-2" target="JOXz93trbiHbaXkIUatv-3" edge="1">
          <mxGeometry relative="1" as="geometry" />
        </mxCell>
        <mxCell id="JOXz93trbiHbaXkIUatv-10" value="策略下发(阈值等)" style="text;html=1;align=center;verticalAlign=middle;resizable=0;points=[];labelBackgroundColor=#ffffff;" parent="JOXz93trbiHbaXkIUatv-9" vertex="1" connectable="0">
          <mxGeometry x="-0.3384" y="-12" relative="1" as="geometry">
            <mxPoint as="offset" />
          </mxGeometry>
        </mxCell>
        <mxCell id="JOXz93trbiHbaXkIUatv-2" value="level0Master" style="rounded=1;whiteSpace=wrap;html=1;" parent="1" vertex="1">
          <mxGeometry x="480" y="70" width="107" height="40" as="geometry" />
        </mxCell>
        <mxCell id="JOXz93trbiHbaXkIUatv-3" value="level0Agent" style="rounded=1;whiteSpace=wrap;html=1;" parent="1" vertex="1">
          <mxGeometry x="218.25" y="370" width="83.5" height="30" as="geometry" />
        </mxCell>
        <mxCell id="JOXz93trbiHbaXkIUatv-7" value="kubelet" style="rounded=1;whiteSpace=wrap;html=1;" parent="1" vertex="1">
          <mxGeometry x="180" y="315" width="80" height="25" as="geometry" />
        </mxCell>
        <mxCell id="JOXz93trbiHbaXkIUatv-20" style="edgeStyle=orthogonalEdgeStyle;curved=1;rounded=0;orthogonalLoop=1;jettySize=auto;html=1;exitX=0.5;exitY=0;exitDx=0;exitDy=0;entryX=0.5;entryY=1;entryDx=0;entryDy=0;" parent="1" source="JOXz93trbiHbaXkIUatv-8" target="JOXz93trbiHbaXkIUatv-18" edge="1">
          <mxGeometry relative="1" as="geometry" />
        </mxCell>
        <mxCell id="JOXz93trbiHbaXkIUatv-21" value="资源调整上报" style="text;html=1;align=center;verticalAlign=middle;resizable=0;points=[];labelBackgroundColor=#ffffff;" parent="JOXz93trbiHbaXkIUatv-20" vertex="1" connectable="0">
          <mxGeometry x="0.5487" y="-2" relative="1" as="geometry">
            <mxPoint as="offset" />
          </mxGeometry>
        </mxCell>
        <mxCell id="JOXz93trbiHbaXkIUatv-8" value="NM" style="rounded=1;whiteSpace=wrap;html=1;" parent="1" vertex="1">
          <mxGeometry x="270" y="315" width="60" height="25" as="geometry" />
        </mxCell>
        <mxCell id="JOXz93trbiHbaXkIUatv-16" value="Node" style="text;html=1;strokeColor=none;fillColor=none;align=center;verticalAlign=middle;whiteSpace=wrap;rounded=0;" parent="1" vertex="1">
          <mxGeometry x="171" y="231" width="40" height="20" as="geometry" />
        </mxCell>
        <mxCell id="JOXz93trbiHbaXkIUatv-23" style="edgeStyle=orthogonalEdgeStyle;curved=1;rounded=0;orthogonalLoop=1;jettySize=auto;html=1;exitX=1;exitY=0.5;exitDx=0;exitDy=0;entryX=1;entryY=0.5;entryDx=0;entryDy=0;" parent="1" source="JOXz93trbiHbaXkIUatv-18" target="JOXz93trbiHbaXkIUatv-8" edge="1">
          <mxGeometry relative="1" as="geometry">
            <Array as="points">
              <mxPoint x="380" y="120" />
              <mxPoint x="380" y="328" />
            </Array>
          </mxGeometry>
        </mxCell>
        <mxCell id="JOXz93trbiHbaXkIUatv-24" value="container分配" style="text;html=1;align=center;verticalAlign=middle;resizable=0;points=[];labelBackgroundColor=#ffffff;" parent="JOXz93trbiHbaXkIUatv-23" vertex="1" connectable="0">
          <mxGeometry x="-0.2253" y="-6" relative="1" as="geometry">
            <mxPoint as="offset" />
          </mxGeometry>
        </mxCell>
        <mxCell id="JOXz93trbiHbaXkIUatv-18" value="RM" style="rounded=1;whiteSpace=wrap;html=1;" parent="1" vertex="1">
          <mxGeometry x="247" y="20" width="107" height="40" as="geometry" />
        </mxCell>
        <mxCell id="JOXz93trbiHbaXkIUatv-26" value="" style="rounded=0;whiteSpace=wrap;html=1;" parent="1" vertex="1">
          <mxGeometry x="171" y="610" width="259" height="280" as="geometry" />
        </mxCell>
        <mxCell id="JOXz93trbiHbaXkIUatv-27" style="edgeStyle=orthogonalEdgeStyle;rounded=0;orthogonalLoop=1;jettySize=auto;html=1;exitX=0.5;exitY=1;exitDx=0;exitDy=0;entryX=1;entryY=0.5;entryDx=0;entryDy=0;curved=1;" parent="1" source="JOXz93trbiHbaXkIUatv-29" target="JOXz93trbiHbaXkIUatv-30" edge="1">
          <mxGeometry relative="1" as="geometry" />
        </mxCell>
        <mxCell id="JOXz93trbiHbaXkIUatv-28" value="1. 策略下发(阈值等)" style="text;html=1;align=center;verticalAlign=middle;resizable=0;points=[];labelBackgroundColor=#ffffff;" parent="JOXz93trbiHbaXkIUatv-27" vertex="1" connectable="0">
          <mxGeometry x="-0.3384" y="-12" relative="1" as="geometry">
            <mxPoint as="offset" />
          </mxGeometry>
        </mxCell>
        <mxCell id="JOXz93trbiHbaXkIUatv-29" value="level0Master" style="rounded=1;whiteSpace=wrap;html=1;" parent="1" vertex="1">
          <mxGeometry x="530" y="601" width="107" height="40" as="geometry" />
        </mxCell>
        <mxCell id="JOXz93trbiHbaXkIUatv-43" style="edgeStyle=orthogonalEdgeStyle;curved=1;rounded=0;orthogonalLoop=1;jettySize=auto;html=1;exitX=0.5;exitY=0;exitDx=0;exitDy=0;entryX=0.5;entryY=1;entryDx=0;entryDy=0;" parent="1" source="JOXz93trbiHbaXkIUatv-30" target="JOXz93trbiHbaXkIUatv-42" edge="1">
          <mxGeometry relative="1" as="geometry" />
        </mxCell>
        <mxCell id="JOXz93trbiHbaXkIUatv-44" value="2. 触及水位线，调整占比" style="text;html=1;align=center;verticalAlign=middle;resizable=0;points=[];labelBackgroundColor=#ffffff;" parent="JOXz93trbiHbaXkIUatv-43" vertex="1" connectable="0">
          <mxGeometry y="-3" relative="1" as="geometry">
            <mxPoint as="offset" />
          </mxGeometry>
        </mxCell>
        <mxCell id="JOXz93trbiHbaXkIUatv-30" value="level0Agent" style="rounded=1;whiteSpace=wrap;html=1;" parent="1" vertex="1">
          <mxGeometry x="255.75" y="840" width="83.5" height="30" as="geometry" />
        </mxCell>
        <mxCell id="JOXz93trbiHbaXkIUatv-51" style="edgeStyle=orthogonalEdgeStyle;curved=1;rounded=0;orthogonalLoop=1;jettySize=auto;html=1;exitX=0.5;exitY=0;exitDx=0;exitDy=0;" parent="1" source="JOXz93trbiHbaXkIUatv-31" target="JOXz93trbiHbaXkIUatv-50" edge="1">
          <mxGeometry relative="1" as="geometry" />
        </mxCell>
        <mxCell id="JOXz93trbiHbaXkIUatv-52" value="3.1 在线横向扩容" style="text;html=1;align=center;verticalAlign=middle;resizable=0;points=[];labelBackgroundColor=#ffffff;" parent="JOXz93trbiHbaXkIUatv-51" vertex="1" connectable="0">
          <mxGeometry x="0.6606" y="-4" relative="1" as="geometry">
            <mxPoint x="1" as="offset" />
          </mxGeometry>
        </mxCell>
        <mxCell id="JOXz93trbiHbaXkIUatv-31" value="kubelet" style="rounded=1;whiteSpace=wrap;html=1;" parent="1" vertex="1">
          <mxGeometry x="206.5" y="690" width="80" height="25" as="geometry" />
        </mxCell>
        <mxCell id="JOXz93trbiHbaXkIUatv-32" style="edgeStyle=orthogonalEdgeStyle;curved=1;rounded=0;orthogonalLoop=1;jettySize=auto;html=1;exitX=0.5;exitY=0;exitDx=0;exitDy=0;entryX=0.5;entryY=1;entryDx=0;entryDy=0;" parent="1" source="JOXz93trbiHbaXkIUatv-34" target="JOXz93trbiHbaXkIUatv-38" edge="1">
          <mxGeometry relative="1" as="geometry" />
        </mxCell>
        <mxCell id="JOXz93trbiHbaXkIUatv-33" value="3. 资源调整上报" style="text;html=1;align=center;verticalAlign=middle;resizable=0;points=[];labelBackgroundColor=#ffffff;" parent="JOXz93trbiHbaXkIUatv-32" vertex="1" connectable="0">
          <mxGeometry x="0.5487" y="-2" relative="1" as="geometry">
            <mxPoint as="offset" />
          </mxGeometry>
        </mxCell>
        <mxCell id="JOXz93trbiHbaXkIUatv-34" value="NM" style="rounded=1;whiteSpace=wrap;html=1;" parent="1" vertex="1">
          <mxGeometry x="330" y="690" width="60" height="25" as="geometry" />
        </mxCell>
        <mxCell id="JOXz93trbiHbaXkIUatv-35" value="Node" style="text;html=1;strokeColor=none;fillColor=none;align=center;verticalAlign=middle;whiteSpace=wrap;rounded=0;" parent="1" vertex="1">
          <mxGeometry x="172" y="611" width="40" height="20" as="geometry" />
        </mxCell>
        <mxCell id="JOXz93trbiHbaXkIUatv-53" style="edgeStyle=orthogonalEdgeStyle;curved=1;rounded=0;orthogonalLoop=1;jettySize=auto;html=1;exitX=1;exitY=0.5;exitDx=0;exitDy=0;entryX=1;entryY=0.5;entryDx=0;entryDy=0;" parent="1" source="JOXz93trbiHbaXkIUatv-38" target="JOXz93trbiHbaXkIUatv-34" edge="1">
          <mxGeometry relative="1" as="geometry">
            <Array as="points">
              <mxPoint x="450" y="500" />
              <mxPoint x="450" y="703" />
            </Array>
          </mxGeometry>
        </mxCell>
        <mxCell id="JOXz93trbiHbaXkIUatv-54" value="4. 按优先级kill task" style="text;html=1;align=center;verticalAlign=middle;resizable=0;points=[];labelBackgroundColor=#ffffff;" parent="JOXz93trbiHbaXkIUatv-53" vertex="1" connectable="0">
          <mxGeometry x="-0.2655" y="-1" relative="1" as="geometry">
            <mxPoint y="1" as="offset" />
          </mxGeometry>
        </mxCell>
        <mxCell id="JOXz93trbiHbaXkIUatv-38" value="RM" style="rounded=1;whiteSpace=wrap;html=1;" parent="1" vertex="1">
          <mxGeometry x="306.5" y="480" width="107" height="40" as="geometry" />
        </mxCell>
        <mxCell id="JOXz93trbiHbaXkIUatv-45" style="edgeStyle=orthogonalEdgeStyle;curved=1;rounded=0;orthogonalLoop=1;jettySize=auto;html=1;exitX=0.75;exitY=0;exitDx=0;exitDy=0;entryX=0.5;entryY=1;entryDx=0;entryDy=0;" parent="1" source="JOXz93trbiHbaXkIUatv-42" target="JOXz93trbiHbaXkIUatv-34" edge="1">
          <mxGeometry relative="1" as="geometry" />
        </mxCell>
        <mxCell id="JOXz93trbiHbaXkIUatv-46" value="调小占比" style="text;html=1;align=center;verticalAlign=middle;resizable=0;points=[];labelBackgroundColor=#ffffff;" parent="JOXz93trbiHbaXkIUatv-45" vertex="1" connectable="0">
          <mxGeometry x="0.0201" relative="1" as="geometry">
            <mxPoint as="offset" />
          </mxGeometry>
        </mxCell>
        <mxCell id="JOXz93trbiHbaXkIUatv-47" style="edgeStyle=orthogonalEdgeStyle;curved=1;rounded=0;orthogonalLoop=1;jettySize=auto;html=1;exitX=0.25;exitY=0;exitDx=0;exitDy=0;entryX=0.5;entryY=1;entryDx=0;entryDy=0;" parent="1" source="JOXz93trbiHbaXkIUatv-42" target="JOXz93trbiHbaXkIUatv-31" edge="1">
          <mxGeometry relative="1" as="geometry" />
        </mxCell>
        <mxCell id="JOXz93trbiHbaXkIUatv-48" value="无法弥补" style="text;html=1;align=center;verticalAlign=middle;resizable=0;points=[];labelBackgroundColor=#ffffff;" parent="JOXz93trbiHbaXkIUatv-47" vertex="1" connectable="0">
          <mxGeometry x="0.0657" relative="1" as="geometry">
            <mxPoint y="1" as="offset" />
          </mxGeometry>
        </mxCell>
        <mxCell id="JOXz93trbiHbaXkIUatv-42" value="计算离线出让量" style="shape=process;whiteSpace=wrap;html=1;backgroundOutline=1;fillColor=#dae8fc;strokeColor=#6c8ebf;" parent="1" vertex="1">
          <mxGeometry x="240.87" y="770" width="119.25" height="30" as="geometry" />
        </mxCell>
        <mxCell id="JOXz93trbiHbaXkIUatv-50" value="ReplicaSet" style="rounded=1;whiteSpace=wrap;html=1;" parent="1" vertex="1">
          <mxGeometry x="99.5" y="480" width="107" height="40" as="geometry" />
        </mxCell>
        <mxCell id="JOXz93trbiHbaXkIUatv-105" value="" style="rounded=0;whiteSpace=wrap;html=1;" parent="1" vertex="1">
          <mxGeometry x="181" y="1090" width="259" height="280" as="geometry" />
        </mxCell>
        <mxCell id="JOXz93trbiHbaXkIUatv-106" style="edgeStyle=orthogonalEdgeStyle;rounded=0;orthogonalLoop=1;jettySize=auto;html=1;exitX=0.5;exitY=1;exitDx=0;exitDy=0;entryX=1;entryY=0.5;entryDx=0;entryDy=0;curved=1;" parent="1" source="JOXz93trbiHbaXkIUatv-108" target="JOXz93trbiHbaXkIUatv-111" edge="1">
          <mxGeometry relative="1" as="geometry" />
        </mxCell>
        <mxCell id="JOXz93trbiHbaXkIUatv-107" value="1. 策略下发(阈值等)" style="text;html=1;align=center;verticalAlign=middle;resizable=0;points=[];labelBackgroundColor=#ffffff;" parent="JOXz93trbiHbaXkIUatv-106" vertex="1" connectable="0">
          <mxGeometry x="-0.3384" y="-12" relative="1" as="geometry">
            <mxPoint as="offset" />
          </mxGeometry>
        </mxCell>
        <mxCell id="JOXz93trbiHbaXkIUatv-108" value="level0Master" style="rounded=1;whiteSpace=wrap;html=1;" parent="1" vertex="1">
          <mxGeometry x="540" y="1081" width="107" height="40" as="geometry" />
        </mxCell>
        <mxCell id="JOXz93trbiHbaXkIUatv-109" style="edgeStyle=orthogonalEdgeStyle;curved=1;rounded=0;orthogonalLoop=1;jettySize=auto;html=1;exitX=0.5;exitY=0;exitDx=0;exitDy=0;entryX=0.5;entryY=1;entryDx=0;entryDy=0;" parent="1" source="JOXz93trbiHbaXkIUatv-111" target="JOXz93trbiHbaXkIUatv-126" edge="1">
          <mxGeometry relative="1" as="geometry" />
        </mxCell>
        <mxCell id="JOXz93trbiHbaXkIUatv-110" value="2. 触及低水位线，调整占比" style="text;html=1;align=center;verticalAlign=middle;resizable=0;points=[];labelBackgroundColor=#ffffff;" parent="JOXz93trbiHbaXkIUatv-109" vertex="1" connectable="0">
          <mxGeometry y="-3" relative="1" as="geometry">
            <mxPoint as="offset" />
          </mxGeometry>
        </mxCell>
        <mxCell id="JOXz93trbiHbaXkIUatv-111" value="level0Agent" style="rounded=1;whiteSpace=wrap;html=1;" parent="1" vertex="1">
          <mxGeometry x="265.75" y="1320" width="83.5" height="30" as="geometry" />
        </mxCell>
        <mxCell id="JOXz93trbiHbaXkIUatv-114" value="kubelet" style="rounded=1;whiteSpace=wrap;html=1;" parent="1" vertex="1">
          <mxGeometry x="216.5" y="1170" width="80" height="25" as="geometry" />
        </mxCell>
        <mxCell id="JOXz93trbiHbaXkIUatv-115" style="edgeStyle=orthogonalEdgeStyle;curved=1;rounded=0;orthogonalLoop=1;jettySize=auto;html=1;exitX=0.5;exitY=0;exitDx=0;exitDy=0;entryX=0.5;entryY=1;entryDx=0;entryDy=0;" parent="1" source="JOXz93trbiHbaXkIUatv-117" target="JOXz93trbiHbaXkIUatv-121" edge="1">
          <mxGeometry relative="1" as="geometry" />
        </mxCell>
        <mxCell id="JOXz93trbiHbaXkIUatv-116" value="3. 资源调整上报" style="text;html=1;align=center;verticalAlign=middle;resizable=0;points=[];labelBackgroundColor=#ffffff;" parent="JOXz93trbiHbaXkIUatv-115" vertex="1" connectable="0">
          <mxGeometry x="0.5487" y="-2" relative="1" as="geometry">
            <mxPoint as="offset" />
          </mxGeometry>
        </mxCell>
        <mxCell id="JOXz93trbiHbaXkIUatv-117" value="NM" style="rounded=1;whiteSpace=wrap;html=1;" parent="1" vertex="1">
          <mxGeometry x="340" y="1170" width="60" height="25" as="geometry" />
        </mxCell>
        <mxCell id="JOXz93trbiHbaXkIUatv-118" value="Node" style="text;html=1;strokeColor=none;fillColor=none;align=center;verticalAlign=middle;whiteSpace=wrap;rounded=0;" parent="1" vertex="1">
          <mxGeometry x="182" y="1091" width="40" height="20" as="geometry" />
        </mxCell>
        <mxCell id="JOXz93trbiHbaXkIUatv-128" style="edgeStyle=orthogonalEdgeStyle;curved=1;rounded=0;orthogonalLoop=1;jettySize=auto;html=1;exitX=1;exitY=0.25;exitDx=0;exitDy=0;entryX=1;entryY=0.5;entryDx=0;entryDy=0;" parent="1" source="JOXz93trbiHbaXkIUatv-121" target="JOXz93trbiHbaXkIUatv-117" edge="1">
          <mxGeometry relative="1" as="geometry">
            <Array as="points">
              <mxPoint x="480" y="1020" />
              <mxPoint x="480" y="1183" />
            </Array>
          </mxGeometry>
        </mxCell>
        <mxCell id="JOXz93trbiHbaXkIUatv-129" value="container 分配" style="text;html=1;align=center;verticalAlign=middle;resizable=0;points=[];labelBackgroundColor=#ffffff;" parent="JOXz93trbiHbaXkIUatv-128" vertex="1" connectable="0">
          <mxGeometry x="-0.1864" y="-1" relative="1" as="geometry">
            <mxPoint y="1" as="offset" />
          </mxGeometry>
        </mxCell>
        <mxCell id="JOXz93trbiHbaXkIUatv-121" value="RM" style="rounded=1;whiteSpace=wrap;html=1;" parent="1" vertex="1">
          <mxGeometry x="316.5" y="1000" width="107" height="40" as="geometry" />
        </mxCell>
        <mxCell id="JOXz93trbiHbaXkIUatv-122" style="edgeStyle=orthogonalEdgeStyle;curved=1;rounded=0;orthogonalLoop=1;jettySize=auto;html=1;exitX=0.75;exitY=0;exitDx=0;exitDy=0;entryX=0.5;entryY=1;entryDx=0;entryDy=0;" parent="1" source="JOXz93trbiHbaXkIUatv-126" target="JOXz93trbiHbaXkIUatv-117" edge="1">
          <mxGeometry relative="1" as="geometry" />
        </mxCell>
        <mxCell id="JOXz93trbiHbaXkIUatv-123" value="调大占比" style="text;html=1;align=center;verticalAlign=middle;resizable=0;points=[];labelBackgroundColor=#ffffff;" parent="JOXz93trbiHbaXkIUatv-122" vertex="1" connectable="0">
          <mxGeometry x="0.0201" relative="1" as="geometry">
            <mxPoint as="offset" />
          </mxGeometry>
        </mxCell>
        <mxCell id="JOXz93trbiHbaXkIUatv-126" value="计算离线接入量" style="shape=process;whiteSpace=wrap;html=1;backgroundOutline=1;fillColor=#dae8fc;strokeColor=#6c8ebf;" parent="1" vertex="1">
          <mxGeometry x="247" y="1250" width="119.25" height="30" as="geometry" />
        </mxCell>
        <mxCell id="JOXz93trbiHbaXkIUatv-132" value="level0Master" style="rounded=1;whiteSpace=wrap;html=1;" parent="1" vertex="1">
          <mxGeometry x="286.5" y="1545" width="107" height="40" as="geometry" />
        </mxCell>
        <mxCell id="JOXz93trbiHbaXkIUatv-137" style="edgeStyle=orthogonalEdgeStyle;curved=1;rounded=0;orthogonalLoop=1;jettySize=auto;html=1;exitX=0.5;exitY=0;exitDx=0;exitDy=0;entryX=0.5;entryY=1;entryDx=0;entryDy=0;" parent="1" source="JOXz93trbiHbaXkIUatv-133" target="JOXz93trbiHbaXkIUatv-132" edge="1">
          <mxGeometry relative="1" as="geometry">
            <mxPoint x="340" y="1610" as="targetPoint" />
            <Array as="points">
              <mxPoint x="171" y="1640" />
              <mxPoint x="340" y="1640" />
            </Array>
          </mxGeometry>
        </mxCell>
        <mxCell id="JOXz93trbiHbaXkIUatv-140" value="metrics上报" style="text;html=1;align=center;verticalAlign=middle;resizable=0;points=[];labelBackgroundColor=#ffffff;" parent="JOXz93trbiHbaXkIUatv-137" vertex="1" connectable="0">
          <mxGeometry x="-0.8064" y="-7" relative="1" as="geometry">
            <mxPoint x="-6.27" y="6.99" as="offset" />
          </mxGeometry>
        </mxCell>
        <mxCell id="JOXz93trbiHbaXkIUatv-164" value="策略下发" style="text;html=1;align=center;verticalAlign=middle;resizable=0;points=[];labelBackgroundColor=#ffffff;" parent="JOXz93trbiHbaXkIUatv-137" vertex="1" connectable="0">
          <mxGeometry x="-0.0315" relative="1" as="geometry">
            <mxPoint y="5" as="offset" />
          </mxGeometry>
        </mxCell>
        <mxCell id="JOXz93trbiHbaXkIUatv-133" value="level0Agent" style="rounded=1;whiteSpace=wrap;html=1;" parent="1" vertex="1">
          <mxGeometry x="129.5" y="1712" width="83.5" height="30" as="geometry" />
        </mxCell>
        <mxCell id="JOXz93trbiHbaXkIUatv-138" style="edgeStyle=orthogonalEdgeStyle;curved=1;rounded=0;orthogonalLoop=1;jettySize=auto;html=1;exitX=0.5;exitY=0;exitDx=0;exitDy=0;entryX=0.5;entryY=1;entryDx=0;entryDy=0;" parent="1" source="JOXz93trbiHbaXkIUatv-134" target="JOXz93trbiHbaXkIUatv-132" edge="1">
          <mxGeometry relative="1" as="geometry">
            <mxPoint x="340" y="1610" as="targetPoint" />
          </mxGeometry>
        </mxCell>
        <mxCell id="JOXz93trbiHbaXkIUatv-141" value="metrics上报" style="text;html=1;align=center;verticalAlign=middle;resizable=0;points=[];labelBackgroundColor=#ffffff;" parent="JOXz93trbiHbaXkIUatv-138" vertex="1" connectable="0">
          <mxGeometry x="-0.38" y="-1" relative="1" as="geometry">
            <mxPoint x="-1" y="17" as="offset" />
          </mxGeometry>
        </mxCell>
        <mxCell id="JOXz93trbiHbaXkIUatv-165" value="策略下发" style="text;html=1;align=center;verticalAlign=middle;resizable=0;points=[];labelBackgroundColor=#ffffff;" parent="JOXz93trbiHbaXkIUatv-138" vertex="1" connectable="0">
          <mxGeometry x="0.0709" y="-1" relative="1" as="geometry">
            <mxPoint as="offset" />
          </mxGeometry>
        </mxCell>
        <mxCell id="JOXz93trbiHbaXkIUatv-134" value="level0Agent" style="rounded=1;whiteSpace=wrap;html=1;" parent="1" vertex="1">
          <mxGeometry x="298.25" y="1712" width="83.5" height="30" as="geometry" />
        </mxCell>
        <mxCell id="JOXz93trbiHbaXkIUatv-139" style="edgeStyle=orthogonalEdgeStyle;curved=1;rounded=0;orthogonalLoop=1;jettySize=auto;html=1;exitX=0.5;exitY=0;exitDx=0;exitDy=0;entryX=0.5;entryY=1;entryDx=0;entryDy=0;" parent="1" source="JOXz93trbiHbaXkIUatv-135" target="JOXz93trbiHbaXkIUatv-132" edge="1">
          <mxGeometry relative="1" as="geometry">
            <mxPoint x="340" y="1610" as="targetPoint" />
            <Array as="points">
              <mxPoint x="498" y="1640" />
              <mxPoint x="340" y="1640" />
            </Array>
          </mxGeometry>
        </mxCell>
        <mxCell id="JOXz93trbiHbaXkIUatv-142" value="metrics上报" style="text;html=1;align=center;verticalAlign=middle;resizable=0;points=[];labelBackgroundColor=#ffffff;" parent="JOXz93trbiHbaXkIUatv-139" vertex="1" connectable="0">
          <mxGeometry x="-0.76" y="9" relative="1" as="geometry">
            <mxPoint x="5.97" y="12.01" as="offset" />
          </mxGeometry>
        </mxCell>
        <mxCell id="JOXz93trbiHbaXkIUatv-166" value="策略下发" style="text;html=1;align=center;verticalAlign=middle;resizable=0;points=[];labelBackgroundColor=#ffffff;" parent="JOXz93trbiHbaXkIUatv-139" vertex="1" connectable="0">
          <mxGeometry x="0.0887" y="-3" relative="1" as="geometry">
            <mxPoint x="29.7" y="8" as="offset" />
          </mxGeometry>
        </mxCell>
        <mxCell id="JOXz93trbiHbaXkIUatv-135" value="level0Agent" style="rounded=1;whiteSpace=wrap;html=1;" parent="1" vertex="1">
          <mxGeometry x="456.5" y="1712" width="83.5" height="30" as="geometry" />
        </mxCell>
        <mxCell id="JOXz93trbiHbaXkIUatv-145" style="edgeStyle=orthogonalEdgeStyle;curved=1;rounded=0;orthogonalLoop=1;jettySize=auto;html=1;exitX=0.5;exitY=1;exitDx=0;exitDy=0;entryX=0.5;entryY=0;entryDx=0;entryDy=0;" parent="1" source="JOXz93trbiHbaXkIUatv-143" target="JOXz93trbiHbaXkIUatv-132" edge="1">
          <mxGeometry relative="1" as="geometry" />
        </mxCell>
        <mxCell id="JOXz93trbiHbaXkIUatv-147" value="托管" style="text;html=1;align=center;verticalAlign=middle;resizable=0;points=[];labelBackgroundColor=#ffffff;" parent="JOXz93trbiHbaXkIUatv-145" vertex="1" connectable="0">
          <mxGeometry x="-0.5929" y="5" relative="1" as="geometry">
            <mxPoint x="-5.75" y="10" as="offset" />
          </mxGeometry>
        </mxCell>
        <mxCell id="JOXz93trbiHbaXkIUatv-151" style="edgeStyle=orthogonalEdgeStyle;curved=1;rounded=0;orthogonalLoop=1;jettySize=auto;html=1;exitX=1;exitY=0.5;exitDx=0;exitDy=0;entryX=0.5;entryY=0;entryDx=0;entryDy=0;" parent="1" source="JOXz93trbiHbaXkIUatv-143" target="JOXz93trbiHbaXkIUatv-150" edge="1">
          <mxGeometry relative="1" as="geometry" />
        </mxCell>
        <mxCell id="JOXz93trbiHbaXkIUatv-143" value="serviceA" style="ellipse;whiteSpace=wrap;html=1;" parent="1" vertex="1">
          <mxGeometry x="285" y="1430" width="110" height="50" as="geometry" />
        </mxCell>
        <mxCell id="JOXz93trbiHbaXkIUatv-154" style="edgeStyle=orthogonalEdgeStyle;curved=1;rounded=0;orthogonalLoop=1;jettySize=auto;html=1;exitX=0.5;exitY=1;exitDx=0;exitDy=0;entryX=0.5;entryY=0;entryDx=0;entryDy=0;" parent="1" source="JOXz93trbiHbaXkIUatv-150" target="JOXz93trbiHbaXkIUatv-153" edge="1">
          <mxGeometry relative="1" as="geometry" />
        </mxCell>
        <mxCell id="JOXz93trbiHbaXkIUatv-150" value="刻画服务压力水位线" style="shape=process;whiteSpace=wrap;html=1;backgroundOutline=1;fillColor=#dae8fc;strokeColor=#6c8ebf;" parent="1" vertex="1">
          <mxGeometry x="480" y="1490" width="140" height="30" as="geometry" />
        </mxCell>
        <mxCell id="JOXz93trbiHbaXkIUatv-156" value="" style="edgeStyle=orthogonalEdgeStyle;curved=1;rounded=0;orthogonalLoop=1;jettySize=auto;html=1;" parent="1" source="JOXz93trbiHbaXkIUatv-153" target="JOXz93trbiHbaXkIUatv-155" edge="1">
          <mxGeometry relative="1" as="geometry" />
        </mxCell>
        <mxCell id="JOXz93trbiHbaXkIUatv-153" value="服务资源画像" style="shape=process;whiteSpace=wrap;html=1;backgroundOutline=1;fillColor=#dae8fc;strokeColor=#6c8ebf;" parent="1" vertex="1">
          <mxGeometry x="480" y="1545" width="140" height="30" as="geometry" />
        </mxCell>
        <mxCell id="JOXz93trbiHbaXkIUatv-157" style="edgeStyle=orthogonalEdgeStyle;curved=1;rounded=0;orthogonalLoop=1;jettySize=auto;html=1;exitX=0;exitY=0.5;exitDx=0;exitDy=0;entryX=1;entryY=0.5;entryDx=0;entryDy=0;" parent="1" source="JOXz93trbiHbaXkIUatv-155" target="JOXz93trbiHbaXkIUatv-132" edge="1">
          <mxGeometry relative="1" as="geometry" />
        </mxCell>
        <mxCell id="JOXz93trbiHbaXkIUatv-155" value="资源配比策略" style="shape=process;whiteSpace=wrap;html=1;backgroundOutline=1;fillColor=#dae8fc;strokeColor=#6c8ebf;" parent="1" vertex="1">
          <mxGeometry x="480" y="1605" width="140" height="30" as="geometry" />
        </mxCell>
        <mxCell id="JOXz93trbiHbaXkIUatv-159" value="Node" style="text;html=1;strokeColor=none;fillColor=none;align=center;verticalAlign=middle;whiteSpace=wrap;rounded=0;" parent="1" vertex="1">
          <mxGeometry x="117.81" y="1660" width="40" height="20" as="geometry" />
        </mxCell>
        <mxCell id="JOXz93trbiHbaXkIUatv-170" value="" style="edgeStyle=orthogonalEdgeStyle;curved=1;rounded=0;orthogonalLoop=1;jettySize=auto;html=1;" parent="1" source="JOXz93trbiHbaXkIUatv-167" target="JOXz93trbiHbaXkIUatv-169" edge="1">
          <mxGeometry relative="1" as="geometry" />
        </mxCell>
        <mxCell id="JOXz93trbiHbaXkIUatv-167" value="pod1" style="rounded=0;whiteSpace=wrap;html=1;" parent="1" vertex="1">
          <mxGeometry x="83.5" y="1860" width="116.5" height="90" as="geometry" />
        </mxCell>
        <mxCell id="JOXz93trbiHbaXkIUatv-184" style="edgeStyle=orthogonalEdgeStyle;curved=1;rounded=0;orthogonalLoop=1;jettySize=auto;html=1;exitX=0.5;exitY=1;exitDx=0;exitDy=0;" parent="1" source="JOXz93trbiHbaXkIUatv-169" target="JOXz93trbiHbaXkIUatv-183" edge="1">
          <mxGeometry relative="1" as="geometry" />
        </mxCell>
        <mxCell id="JOXz93trbiHbaXkIUatv-186" value="&lt;font color=&quot;#ff3333&quot;&gt;封装targetIp: 192.168.7.206&lt;/font&gt;" style="text;html=1;align=center;verticalAlign=middle;resizable=0;points=[];labelBackgroundColor=#ffffff;" parent="JOXz93trbiHbaXkIUatv-184" vertex="1" connectable="0">
          <mxGeometry y="-3" relative="1" as="geometry">
            <mxPoint x="2" y="-3" as="offset" />
          </mxGeometry>
        </mxCell>
        <mxCell id="JOXz93trbiHbaXkIUatv-169" value="calixxx" style="rounded=0;whiteSpace=wrap;html=1;" parent="1" vertex="1">
          <mxGeometry x="93.5" y="1970" width="96.5" height="30" as="geometry" />
        </mxCell>
        <mxCell id="JOXz93trbiHbaXkIUatv-168" value="eth0" style="rounded=0;whiteSpace=wrap;html=1;" parent="1" vertex="1">
          <mxGeometry x="112" y="1920" width="60" height="30" as="geometry" />
        </mxCell>
        <mxCell id="JOXz93trbiHbaXkIUatv-176" style="edgeStyle=orthogonalEdgeStyle;curved=1;rounded=0;orthogonalLoop=1;jettySize=auto;html=1;exitX=1;exitY=0.5;exitDx=0;exitDy=0;entryX=0;entryY=0.5;entryDx=0;entryDy=0;" parent="1" source="JOXz93trbiHbaXkIUatv-175" target="JOXz93trbiHbaXkIUatv-168" edge="1">
          <mxGeometry relative="1" as="geometry" />
        </mxCell>
        <mxCell id="JOXz93trbiHbaXkIUatv-175" value="192.168.119.3" style="text;html=1;strokeColor=none;fillColor=none;align=center;verticalAlign=middle;whiteSpace=wrap;rounded=0;" parent="1" vertex="1">
          <mxGeometry x="-10" y="1910" width="70" height="20" as="geometry" />
        </mxCell>
        <mxCell id="JOXz93trbiHbaXkIUatv-178" value="eth0" style="rounded=0;whiteSpace=wrap;html=1;" parent="1" vertex="1">
          <mxGeometry x="120" y="2110" width="60" height="20" as="geometry" />
        </mxCell>
        <mxCell id="JOXz93trbiHbaXkIUatv-185" style="edgeStyle=orthogonalEdgeStyle;curved=1;rounded=0;orthogonalLoop=1;jettySize=auto;html=1;exitX=0.5;exitY=1;exitDx=0;exitDy=0;entryX=0.5;entryY=0;entryDx=0;entryDy=0;" parent="1" source="JOXz93trbiHbaXkIUatv-183" target="JOXz93trbiHbaXkIUatv-178" edge="1">
          <mxGeometry relative="1" as="geometry" />
        </mxCell>
        <mxCell id="JOXz93trbiHbaXkIUatv-183" value="tun0" style="rounded=0;whiteSpace=wrap;html=1;" parent="1" vertex="1">
          <mxGeometry x="93.5" y="2040" width="96.5" height="30" as="geometry" />
        </mxCell>
        <mxCell id="JOXz93trbiHbaXkIUatv-188" style="edgeStyle=orthogonalEdgeStyle;curved=1;rounded=0;orthogonalLoop=1;jettySize=auto;html=1;exitX=1;exitY=0.5;exitDx=0;exitDy=0;entryX=0;entryY=0.5;entryDx=0;entryDy=0;" parent="1" source="JOXz93trbiHbaXkIUatv-187" target="JOXz93trbiHbaXkIUatv-178" edge="1">
          <mxGeometry relative="1" as="geometry" />
        </mxCell>
        <mxCell id="JOXz93trbiHbaXkIUatv-187" value="192.168.7.205" style="text;html=1;strokeColor=none;fillColor=none;align=center;verticalAlign=middle;whiteSpace=wrap;rounded=0;" parent="1" vertex="1">
          <mxGeometry x="13.5" y="2090" width="70" height="20" as="geometry" />
        </mxCell>
        <mxCell id="JOXz93trbiHbaXkIUatv-189" value="" style="rounded=0;whiteSpace=wrap;html=1;" parent="1" vertex="1">
          <mxGeometry x="415.75" y="1820" width="335.5" height="310" as="geometry" />
        </mxCell>
        <mxCell id="JOXz93trbiHbaXkIUatv-190" value="" style="edgeStyle=orthogonalEdgeStyle;curved=1;rounded=0;orthogonalLoop=1;jettySize=auto;html=1;" parent="1" source="JOXz93trbiHbaXkIUatv-191" target="JOXz93trbiHbaXkIUatv-194" edge="1">
          <mxGeometry relative="1" as="geometry" />
        </mxCell>
        <mxCell id="JOXz93trbiHbaXkIUatv-191" value="pod2" style="rounded=0;whiteSpace=wrap;html=1;" parent="1" vertex="1">
          <mxGeometry x="514.75" y="1860" width="116.5" height="90" as="geometry" />
        </mxCell>
        <mxCell id="JOXz93trbiHbaXkIUatv-192" style="edgeStyle=orthogonalEdgeStyle;curved=1;rounded=0;orthogonalLoop=1;jettySize=auto;html=1;exitX=0.5;exitY=1;exitDx=0;exitDy=0;" parent="1" source="JOXz93trbiHbaXkIUatv-194" target="JOXz93trbiHbaXkIUatv-200" edge="1">
          <mxGeometry relative="1" as="geometry" />
        </mxCell>
        <mxCell id="JOXz93trbiHbaXkIUatv-193" value="&lt;font color=&quot;#ff3333&quot;&gt;封装targetIp: 192.168.7.205&lt;/font&gt;" style="text;html=1;align=center;verticalAlign=middle;resizable=0;points=[];labelBackgroundColor=#ffffff;" parent="JOXz93trbiHbaXkIUatv-192" vertex="1" connectable="0">
          <mxGeometry y="-3" relative="1" as="geometry">
            <mxPoint x="2" y="-3" as="offset" />
          </mxGeometry>
        </mxCell>
        <mxCell id="JOXz93trbiHbaXkIUatv-194" value="calixxx" style="rounded=0;whiteSpace=wrap;html=1;" parent="1" vertex="1">
          <mxGeometry x="524.75" y="1970" width="96.5" height="30" as="geometry" />
        </mxCell>
        <mxCell id="JOXz93trbiHbaXkIUatv-195" value="eth0" style="rounded=0;whiteSpace=wrap;html=1;" parent="1" vertex="1">
          <mxGeometry x="543.25" y="1920" width="60" height="30" as="geometry" />
        </mxCell>
        <mxCell id="JOXz93trbiHbaXkIUatv-196" style="edgeStyle=orthogonalEdgeStyle;curved=1;rounded=0;orthogonalLoop=1;jettySize=auto;html=1;exitX=1;exitY=0.5;exitDx=0;exitDy=0;entryX=0;entryY=0.5;entryDx=0;entryDy=0;" parent="1" source="JOXz93trbiHbaXkIUatv-197" target="JOXz93trbiHbaXkIUatv-195" edge="1">
          <mxGeometry relative="1" as="geometry" />
        </mxCell>
        <mxCell id="JOXz93trbiHbaXkIUatv-197" value="192.168.119.4" style="text;html=1;strokeColor=none;fillColor=none;align=center;verticalAlign=middle;whiteSpace=wrap;rounded=0;" parent="1" vertex="1">
          <mxGeometry x="421.25" y="1910" width="70" height="20" as="geometry" />
        </mxCell>
        <mxCell id="JOXz93trbiHbaXkIUatv-203" style="edgeStyle=orthogonalEdgeStyle;curved=1;rounded=0;orthogonalLoop=1;jettySize=auto;html=1;exitX=0.5;exitY=1;exitDx=0;exitDy=0;entryX=0.5;entryY=1;entryDx=0;entryDy=0;" parent="1" source="JOXz93trbiHbaXkIUatv-198" target="JOXz93trbiHbaXkIUatv-178" edge="1">
          <mxGeometry relative="1" as="geometry">
            <Array as="points">
              <mxPoint x="581" y="2190" />
              <mxPoint x="150" y="2190" />
            </Array>
          </mxGeometry>
        </mxCell>
        <mxCell id="JOXz93trbiHbaXkIUatv-198" value="eth0" style="rounded=0;whiteSpace=wrap;html=1;" parent="1" vertex="1">
          <mxGeometry x="551.25" y="2110" width="60" height="20" as="geometry" />
        </mxCell>
        <mxCell id="JOXz93trbiHbaXkIUatv-199" style="edgeStyle=orthogonalEdgeStyle;curved=1;rounded=0;orthogonalLoop=1;jettySize=auto;html=1;exitX=0.5;exitY=1;exitDx=0;exitDy=0;entryX=0.5;entryY=0;entryDx=0;entryDy=0;" parent="1" source="JOXz93trbiHbaXkIUatv-200" target="JOXz93trbiHbaXkIUatv-198" edge="1">
          <mxGeometry relative="1" as="geometry" />
        </mxCell>
        <mxCell id="JOXz93trbiHbaXkIUatv-200" value="tun0" style="rounded=0;whiteSpace=wrap;html=1;" parent="1" vertex="1">
          <mxGeometry x="524.75" y="2040" width="96.5" height="30" as="geometry" />
        </mxCell>
        <mxCell id="JOXz93trbiHbaXkIUatv-201" style="edgeStyle=orthogonalEdgeStyle;curved=1;rounded=0;orthogonalLoop=1;jettySize=auto;html=1;exitX=1;exitY=0.5;exitDx=0;exitDy=0;entryX=0;entryY=0.5;entryDx=0;entryDy=0;" parent="1" source="JOXz93trbiHbaXkIUatv-202" target="JOXz93trbiHbaXkIUatv-198" edge="1">
          <mxGeometry relative="1" as="geometry" />
        </mxCell>
        <mxCell id="JOXz93trbiHbaXkIUatv-202" value="192.168.7.206" style="text;html=1;strokeColor=none;fillColor=none;align=center;verticalAlign=middle;whiteSpace=wrap;rounded=0;" parent="1" vertex="1">
          <mxGeometry x="444.75" y="2090" width="70" height="20" as="geometry" />
        </mxCell>
        <mxCell id="JOXz93trbiHbaXkIUatv-204" value="" style="rounded=0;whiteSpace=wrap;html=1;" parent="1" vertex="1">
          <mxGeometry x="-23.37" y="2338" width="335.5" height="310" as="geometry" />
        </mxCell>
        <mxCell id="JOXz93trbiHbaXkIUatv-205" value="" style="edgeStyle=orthogonalEdgeStyle;curved=1;rounded=0;orthogonalLoop=1;jettySize=auto;html=1;" parent="1" source="JOXz93trbiHbaXkIUatv-206" target="JOXz93trbiHbaXkIUatv-209" edge="1">
          <mxGeometry relative="1" as="geometry" />
        </mxCell>
        <mxCell id="JOXz93trbiHbaXkIUatv-206" value="pod1" style="rounded=0;whiteSpace=wrap;html=1;" parent="1" vertex="1">
          <mxGeometry x="75.63" y="2378" width="116.5" height="90" as="geometry" />
        </mxCell>
        <mxCell id="JOXz93trbiHbaXkIUatv-209" value="docker0" style="rounded=0;whiteSpace=wrap;html=1;" parent="1" vertex="1">
          <mxGeometry x="85.63" y="2488" width="96.5" height="30" as="geometry" />
        </mxCell>
        <mxCell id="JOXz93trbiHbaXkIUatv-210" value="eth0" style="rounded=0;whiteSpace=wrap;html=1;" parent="1" vertex="1">
          <mxGeometry x="104.13" y="2438" width="60" height="30" as="geometry" />
        </mxCell>
        <mxCell id="JOXz93trbiHbaXkIUatv-211" style="edgeStyle=orthogonalEdgeStyle;curved=1;rounded=0;orthogonalLoop=1;jettySize=auto;html=1;exitX=1;exitY=0.5;exitDx=0;exitDy=0;entryX=0;entryY=0.5;entryDx=0;entryDy=0;" parent="1" source="JOXz93trbiHbaXkIUatv-212" target="JOXz93trbiHbaXkIUatv-210" edge="1">
          <mxGeometry relative="1" as="geometry" />
        </mxCell>
        <mxCell id="JOXz93trbiHbaXkIUatv-212" value="192.168.119.3" style="text;html=1;strokeColor=none;fillColor=none;align=center;verticalAlign=middle;whiteSpace=wrap;rounded=0;" parent="1" vertex="1">
          <mxGeometry x="-17.87" y="2428" width="70" height="20" as="geometry" />
        </mxCell>
        <mxCell id="JOXz93trbiHbaXkIUatv-213" value="eth0" style="rounded=0;whiteSpace=wrap;html=1;" parent="1" vertex="1">
          <mxGeometry x="112.13" y="2628" width="60" height="20" as="geometry" />
        </mxCell>
        <mxCell id="JOXz93trbiHbaXkIUatv-214" style="edgeStyle=orthogonalEdgeStyle;curved=1;rounded=0;orthogonalLoop=1;jettySize=auto;html=1;exitX=0.5;exitY=1;exitDx=0;exitDy=0;entryX=0.5;entryY=0;entryDx=0;entryDy=0;" parent="1" target="JOXz93trbiHbaXkIUatv-213" edge="1">
          <mxGeometry relative="1" as="geometry">
            <mxPoint x="133.8800000000001" y="2588" as="sourcePoint" />
          </mxGeometry>
        </mxCell>
        <mxCell id="JOXz93trbiHbaXkIUatv-216" style="edgeStyle=orthogonalEdgeStyle;curved=1;rounded=0;orthogonalLoop=1;jettySize=auto;html=1;exitX=1;exitY=0.5;exitDx=0;exitDy=0;entryX=0;entryY=0.5;entryDx=0;entryDy=0;" parent="1" source="JOXz93trbiHbaXkIUatv-217" target="JOXz93trbiHbaXkIUatv-213" edge="1">
          <mxGeometry relative="1" as="geometry" />
        </mxCell>
        <mxCell id="JOXz93trbiHbaXkIUatv-217" value="192.168.7.205" style="text;html=1;strokeColor=none;fillColor=none;align=center;verticalAlign=middle;whiteSpace=wrap;rounded=0;" parent="1" vertex="1">
          <mxGeometry x="5.629999999999999" y="2608" width="70" height="20" as="geometry" />
        </mxCell>
        <mxCell id="JOXz93trbiHbaXkIUatv-218" value="" style="rounded=0;whiteSpace=wrap;html=1;" parent="1" vertex="1">
          <mxGeometry x="407.88" y="2338" width="335.5" height="310" as="geometry" />
        </mxCell>
        <mxCell id="JOXz93trbiHbaXkIUatv-219" value="" style="edgeStyle=orthogonalEdgeStyle;curved=1;rounded=0;orthogonalLoop=1;jettySize=auto;html=1;" parent="1" source="JOXz93trbiHbaXkIUatv-220" target="JOXz93trbiHbaXkIUatv-223" edge="1">
          <mxGeometry relative="1" as="geometry" />
        </mxCell>
        <mxCell id="JOXz93trbiHbaXkIUatv-220" value="pod2" style="rounded=0;whiteSpace=wrap;html=1;" parent="1" vertex="1">
          <mxGeometry x="506.88" y="2378" width="116.5" height="90" as="geometry" />
        </mxCell>
        <mxCell id="JOXz93trbiHbaXkIUatv-223" value="calixxx" style="rounded=0;whiteSpace=wrap;html=1;" parent="1" vertex="1">
          <mxGeometry x="516.88" y="2488" width="96.5" height="30" as="geometry" />
        </mxCell>
        <mxCell id="JOXz93trbiHbaXkIUatv-224" value="eth0" style="rounded=0;whiteSpace=wrap;html=1;" parent="1" vertex="1">
          <mxGeometry x="535.38" y="2438" width="60" height="30" as="geometry" />
        </mxCell>
        <mxCell id="JOXz93trbiHbaXkIUatv-225" style="edgeStyle=orthogonalEdgeStyle;curved=1;rounded=0;orthogonalLoop=1;jettySize=auto;html=1;exitX=1;exitY=0.5;exitDx=0;exitDy=0;entryX=0;entryY=0.5;entryDx=0;entryDy=0;" parent="1" source="JOXz93trbiHbaXkIUatv-226" target="JOXz93trbiHbaXkIUatv-224" edge="1">
          <mxGeometry relative="1" as="geometry" />
        </mxCell>
        <mxCell id="JOXz93trbiHbaXkIUatv-226" value="192.168.118.4" style="text;html=1;strokeColor=none;fillColor=none;align=center;verticalAlign=middle;whiteSpace=wrap;rounded=0;" parent="1" vertex="1">
          <mxGeometry x="413.38" y="2428" width="70" height="20" as="geometry" />
        </mxCell>
        <mxCell id="JOXz93trbiHbaXkIUatv-227" style="edgeStyle=orthogonalEdgeStyle;curved=1;rounded=0;orthogonalLoop=1;jettySize=auto;html=1;exitX=0.5;exitY=1;exitDx=0;exitDy=0;entryX=0.5;entryY=1;entryDx=0;entryDy=0;" parent="1" source="JOXz93trbiHbaXkIUatv-228" target="JOXz93trbiHbaXkIUatv-213" edge="1">
          <mxGeometry relative="1" as="geometry">
            <Array as="points">
              <mxPoint x="573.13" y="2708" />
              <mxPoint x="142.13" y="2708" />
            </Array>
          </mxGeometry>
        </mxCell>
        <mxCell id="JOXz93trbiHbaXkIUatv-228" value="eth0" style="rounded=0;whiteSpace=wrap;html=1;" parent="1" vertex="1">
          <mxGeometry x="543.38" y="2628" width="60" height="20" as="geometry" />
        </mxCell>
        <mxCell id="JOXz93trbiHbaXkIUatv-229" style="edgeStyle=orthogonalEdgeStyle;curved=1;rounded=0;orthogonalLoop=1;jettySize=auto;html=1;exitX=0.5;exitY=1;exitDx=0;exitDy=0;entryX=0.5;entryY=0;entryDx=0;entryDy=0;" parent="1" target="JOXz93trbiHbaXkIUatv-228" edge="1">
          <mxGeometry relative="1" as="geometry">
            <mxPoint x="565.1300000000001" y="2588" as="sourcePoint" />
          </mxGeometry>
        </mxCell>
        <mxCell id="JOXz93trbiHbaXkIUatv-231" style="edgeStyle=orthogonalEdgeStyle;curved=1;rounded=0;orthogonalLoop=1;jettySize=auto;html=1;exitX=1;exitY=0.5;exitDx=0;exitDy=0;entryX=0;entryY=0.5;entryDx=0;entryDy=0;" parent="1" source="JOXz93trbiHbaXkIUatv-232" target="JOXz93trbiHbaXkIUatv-228" edge="1">
          <mxGeometry relative="1" as="geometry" />
        </mxCell>
        <mxCell id="JOXz93trbiHbaXkIUatv-232" value="192.168.7.206" style="text;html=1;strokeColor=none;fillColor=none;align=center;verticalAlign=middle;whiteSpace=wrap;rounded=0;" parent="1" vertex="1">
          <mxGeometry x="436.88" y="2608" width="70" height="20" as="geometry" />
        </mxCell>
        <mxCell id="JOXz93trbiHbaXkIUatv-235" style="edgeStyle=orthogonalEdgeStyle;curved=1;rounded=0;orthogonalLoop=1;jettySize=auto;html=1;exitX=0;exitY=0.5;exitDx=0;exitDy=0;entryX=0.5;entryY=0;entryDx=0;entryDy=0;" parent="1" source="JOXz93trbiHbaXkIUatv-233" target="JOXz93trbiHbaXkIUatv-234" edge="1">
          <mxGeometry relative="1" as="geometry" />
        </mxCell>
        <mxCell id="JOXz93trbiHbaXkIUatv-236" value="subNetAdd:192.168.119.0/24" style="text;html=1;align=center;verticalAlign=middle;resizable=0;points=[];labelBackgroundColor=#ffffff;" parent="JOXz93trbiHbaXkIUatv-235" vertex="1" connectable="0">
          <mxGeometry x="-0.4011" y="24" relative="1" as="geometry">
            <mxPoint as="offset" />
          </mxGeometry>
        </mxCell>
        <mxCell id="JOXz93trbiHbaXkIUatv-238" style="edgeStyle=orthogonalEdgeStyle;curved=1;rounded=0;orthogonalLoop=1;jettySize=auto;html=1;exitX=1;exitY=0.5;exitDx=0;exitDy=0;entryX=0.5;entryY=0;entryDx=0;entryDy=0;" parent="1" source="JOXz93trbiHbaXkIUatv-233" target="JOXz93trbiHbaXkIUatv-237" edge="1">
          <mxGeometry relative="1" as="geometry" />
        </mxCell>
        <mxCell id="JOXz93trbiHbaXkIUatv-239" value="subNetAdd: 192.168.118.0/24" style="text;html=1;align=center;verticalAlign=middle;resizable=0;points=[];labelBackgroundColor=#ffffff;" parent="JOXz93trbiHbaXkIUatv-238" vertex="1" connectable="0">
          <mxGeometry x="-0.5024" y="-18" relative="1" as="geometry">
            <mxPoint as="offset" />
          </mxGeometry>
        </mxCell>
        <mxCell id="JOXz93trbiHbaXkIUatv-233" value="etcd" style="ellipse;whiteSpace=wrap;html=1;" parent="1" vertex="1">
          <mxGeometry x="303.38" y="2230" width="126.62" height="50" as="geometry" />
        </mxCell>
        <mxCell id="JOXz93trbiHbaXkIUatv-241" style="edgeStyle=orthogonalEdgeStyle;curved=1;rounded=0;orthogonalLoop=1;jettySize=auto;html=1;exitX=0;exitY=0.25;exitDx=0;exitDy=0;entryX=1;entryY=0.5;entryDx=0;entryDy=0;" parent="1" source="JOXz93trbiHbaXkIUatv-234" target="JOXz93trbiHbaXkIUatv-240" edge="1">
          <mxGeometry relative="1" as="geometry" />
        </mxCell>
        <mxCell id="JOXz93trbiHbaXkIUatv-234" value="flannel" style="rounded=1;whiteSpace=wrap;html=1;fillColor=#dae8fc;strokeColor=#6c8ebf;" parent="1" vertex="1">
          <mxGeometry x="196.5" y="2540" width="90" height="30" as="geometry" />
        </mxCell>
        <mxCell id="JOXz93trbiHbaXkIUatv-244" style="edgeStyle=orthogonalEdgeStyle;curved=1;rounded=0;orthogonalLoop=1;jettySize=auto;html=1;exitX=1;exitY=0.5;exitDx=0;exitDy=0;entryX=0;entryY=0.5;entryDx=0;entryDy=0;" parent="1" source="JOXz93trbiHbaXkIUatv-237" target="JOXz93trbiHbaXkIUatv-243" edge="1">
          <mxGeometry relative="1" as="geometry" />
        </mxCell>
        <mxCell id="JOXz93trbiHbaXkIUatv-237" value="flannel" style="rounded=1;whiteSpace=wrap;html=1;fillColor=#dae8fc;strokeColor=#6c8ebf;" parent="1" vertex="1">
          <mxGeometry x="424.75" y="2540" width="90" height="30" as="geometry" />
        </mxCell>
        <mxCell id="JOXz93trbiHbaXkIUatv-240" value="iptables" style="rounded=1;whiteSpace=wrap;html=1;fillColor=#fff2cc;strokeColor=#d6b656;" parent="1" vertex="1">
          <mxGeometry x="-14.370000000000001" y="2540" width="97.87" height="30" as="geometry" />
        </mxCell>
        <mxCell id="JOXz93trbiHbaXkIUatv-242" value="&lt;h1&gt;&lt;span style=&quot;font-size: 12px ; font-weight: 400&quot;&gt;192.168.118.0/24 via 192.168.7.206 dev eth0&lt;/span&gt;&lt;/h1&gt;" style="text;html=1;strokeColor=none;fillColor=none;spacing=5;spacingTop=-20;whiteSpace=wrap;overflow=hidden;rounded=0;" parent="1" vertex="1">
          <mxGeometry x="-20" y="2730" width="290" height="90" as="geometry" />
        </mxCell>
        <mxCell id="JOXz93trbiHbaXkIUatv-243" value="iptables" style="rounded=1;whiteSpace=wrap;html=1;fillColor=#fff2cc;strokeColor=#d6b656;" parent="1" vertex="1">
          <mxGeometry x="631.25" y="2540" width="97.87" height="30" as="geometry" />
        </mxCell>
      </root>
    </mxGraphModel>
  </diagram>
</mxfile>
